<?xml version="1.0" encoding="UTF-8"?>
<svg xmlns="http://www.w3.org/2000/svg" version="1.1" viewBox="0 0 1080 1080">
  <defs>
    <style>
      .cls-1 {
        fill: #fff;
      }
    </style>
  </defs>
  <!-- Generator: Adobe Illustrator 28.7.3, SVG Export Plug-In . SVG Version: 1.2.0 Build 164)  -->
  <g>
    <g id="Layer_1">
      <g>
        <path class="cls-1" d="M251.2,471.6l-2.4-1.8c9.5-12.4,21.4-33.5,24.7-47.9,1.5-5,2.3-10.6,3.1-16,1.5-10.4,3-20.2,8.7-24.9,3.1-2.5,8-3,11.8-3.1h1.5c5.5-.2,11.2-.4,16.2-2.4,15.6-6.7,26.9-26.2,31.1-42.5,1.3-5.2,2.2-11.2,2.8-18,.2-2.5.3-4.8.4-7,.3-6.4.5-11.5,2.7-15.5,4.9-8.3,13.7-7,22.3-5.7,7.5,1.1,15.2,2.2,21.5-2.2,5.7-3.7,8.3-9.7,11-16,2.1-4.8,4.2-9.7,7.8-13.7,5.3-6.2,13.7-8.3,23-5.6,6.2,1.6,14.3,3.4,21.4,2.9,11.2-.4,19.6-5.4,29.4-11.9,9.1-5.9,19.9-7.5,29-4.2,6,2,10.7,5.8,15.7,9.8,4.3,3.4,8.7,7,14.1,9.3,9.6,4.4,21.9,4,32.2-.9,4.4-1.9,8.5-4.5,12.4-6.9,5.3-3.3,10.8-6.7,16.9-8.7,16.2-4.7,24.3,4.2,31.9,14.5,11.6,15,27.7,21.3,52.2,20.5,12.2-.3,30.6-.7,35.9,15.9,1.2,3.7,1.5,7.5,1.7,11.2.2,2.3.3,4.6.7,6.9,1.6,12.2,9.5,23.1,21.5,29.9,10.1,5.8,21,13.6,25.3,27.7,1,2.9,1.6,5.8,2.2,8.6.5,2.2.9,4.4,1.6,6.6,1.6,5.9,4.7,11.4,8.8,15.9,2.9,3.2,6.1,5.7,9.5,8.4,2.3,1.8,4.6,3.6,7,5.8,10.5,9,18.8,22.1,23.5,37l-2.9.9c-4.5-14.4-12.5-27-22.6-35.6-2.4-2.1-4.7-3.9-6.9-5.7-3.5-2.7-6.8-5.3-9.9-8.7-4.5-4.8-7.8-10.7-9.5-17.1-.7-2.3-1.1-4.6-1.6-6.8-.6-2.7-1.2-5.6-2.1-8.3-4.1-13.2-14.4-20.5-24-26-12.8-7.3-21.2-19-22.9-32.1-.4-2.4-.6-4.8-.7-7.1-.3-3.7-.5-7.1-1.6-10.5-4.2-13.3-18.6-14.1-33-13.8-25.2.9-42.5-6-54.7-21.6-8.5-11.6-15.6-17.2-28.6-13.4-5.8,1.9-10.8,5-16.2,8.3-4,2.5-8.2,5.1-12.7,7.1-11.1,5.3-24.4,5.7-34.7.9-5.8-2.5-10.3-6.2-14.8-9.7-4.7-3.8-9.2-7.4-14.8-9.3-8.2-3-18-1.5-26.3,3.9-9.9,6.6-19,12-30.9,12.4-7.5.6-15.9-1.3-22.4-3-8.2-2.4-15.5-.7-20,4.7-3.3,3.6-5.2,8.1-7.3,12.9-2.8,6.5-5.7,13.2-12.1,17.3-7.1,5.1-15.9,3.9-23.6,2.7-8.2-1.2-15.4-2.3-19.2,4.3-1.9,3.4-2.1,8.1-2.3,14.2-.1,2.2-.2,4.6-.4,7.1-.5,6.9-1.5,13.1-2.8,18.5-4.4,17-16.3,37.4-32.9,44.5-5.5,2.3-11.5,2.5-17.3,2.6h-1.5c-3.4.1-7.6.5-10,2.5-4.9,4-6.2,13.2-7.6,23-.8,5.5-1.6,11.2-3.1,16.3-3.4,14.8-15.5,36.3-25.2,49h0Z"/>
        <path class="cls-1" d="M251.2,447.4l-2.4-1.8c9.5-12.4,21.4-33.5,24.7-47.9,1.5-5,2.3-10.6,3.1-16,1.5-10.4,3-20.2,8.7-24.9,3.1-2.5,8-3,11.8-3.1h1.5c5.5-.2,11.2-.4,16.2-2.4,15.6-6.7,26.9-26.2,31.1-42.5,1.3-5.2,2.2-11.2,2.8-18,.2-2.5.3-4.8.4-7,.3-6.4.5-11.5,2.7-15.5,4.9-8.3,13.7-7,22.3-5.7,7.5,1.1,15.2,2.2,21.5-2.2,5.7-3.7,8.3-9.7,11-16,2.1-4.8,4.2-9.7,7.8-13.7,5.3-6.2,13.7-8.3,23-5.6,6.2,1.6,14.3,3.4,21.4,2.9,11.2-.4,19.6-5.4,29.4-11.9,9.1-5.9,19.9-7.5,29-4.2,6,2,10.7,5.8,15.7,9.8,4.3,3.4,8.7,7,14.1,9.3,9.6,4.4,21.9,4,32.2-.9,4.4-1.9,8.5-4.5,12.4-6.9,5.3-3.3,10.8-6.7,16.9-8.7,16.2-4.7,24.3,4.2,31.9,14.5,11.6,15,27.7,21.3,52.2,20.4,12.2-.3,30.6-.7,35.9,15.9,1.2,3.7,1.5,7.5,1.7,11.2.2,2.3.3,4.6.7,6.9,1.6,12.2,9.5,23.1,21.5,29.9,10.1,5.8,21,13.6,25.3,27.7,1,2.9,1.6,5.8,2.2,8.6.5,2.2.9,4.4,1.6,6.6,1.6,5.9,4.7,11.4,8.8,15.9,2.9,3.2,6.1,5.7,9.5,8.4,2.3,1.8,4.6,3.6,7,5.8,10.5,9,18.8,22.1,23.5,37l-2.9.9c-4.5-14.4-12.5-27-22.6-35.6-2.4-2.1-4.7-3.9-6.9-5.7-3.5-2.7-6.8-5.3-9.9-8.7-4.5-4.8-7.8-10.7-9.5-17.1-.7-2.3-1.1-4.6-1.6-6.8-.6-2.7-1.2-5.6-2.1-8.3-4.1-13.2-14.4-20.5-24-26-12.8-7.3-21.2-19-22.9-32.1-.4-2.4-.6-4.8-.7-7.1-.3-3.7-.5-7.1-1.6-10.5-4.2-13.3-18.6-14.1-33-13.8-25.2.9-42.5-6-54.7-21.6-8.5-11.6-15.6-17.2-28.6-13.4-5.8,1.9-10.8,5-16.2,8.4-4,2.5-8.2,5.1-12.7,7.1-11.1,5.3-24.4,5.7-34.7.9-5.8-2.5-10.3-6.2-14.8-9.7-4.7-3.8-9.2-7.4-14.8-9.3-8.2-3-18-1.5-26.3,3.9-9.9,6.6-19,12-30.9,12.4-7.5.6-15.9-1.3-22.4-3-8.2-2.4-15.5-.7-20,4.7-3.3,3.6-5.2,8.1-7.3,12.9-2.8,6.5-5.7,13.2-12.1,17.3-7.1,5.1-15.9,3.9-23.6,2.7-8.2-1.2-15.4-2.3-19.2,4.3-1.9,3.4-2.1,8.1-2.3,14.2-.1,2.2-.2,4.6-.4,7.1-.5,6.9-1.5,13.1-2.8,18.5-4.4,17-16.3,37.4-32.9,44.5-5.5,2.3-11.5,2.5-17.3,2.6h-1.5c-3.4.1-7.6.5-10,2.5-4.9,4-6.2,13.2-7.6,23-.8,5.5-1.6,11.2-3.1,16.3-3.4,14.8-15.5,36.3-25.2,49h0Z"/>
        <path class="cls-1" d="M251.2,423.2l-2.4-1.8c9.5-12.4,21.4-33.5,24.7-47.9,1.5-5,2.3-10.6,3.1-16,1.5-10.4,3-20.2,8.7-24.9,3.1-2.5,8-3,11.8-3.1h1.5c5.5-.2,11.2-.4,16.2-2.4,15.6-6.7,26.9-26.2,31.1-42.5,1.3-5.2,2.2-11.2,2.8-18,.2-2.5.3-4.8.4-7,.3-6.4.5-11.5,2.7-15.5,4.9-8.3,13.7-7,22.3-5.7,7.5,1.1,15.2,2.2,21.5-2.2,5.7-3.7,8.3-9.7,11-16,2.1-4.8,4.2-9.7,7.8-13.7,5.3-6.2,13.7-8.3,23-5.6,6.2,1.6,14.3,3.4,21.4,2.9,11.2-.4,19.6-5.4,29.4-11.9,9.1-5.9,19.9-7.5,29-4.2,6,2,10.7,5.8,15.7,9.8,4.3,3.4,8.7,7,14.1,9.3,9.6,4.4,21.9,4,32.2-.9,4.4-1.9,8.5-4.5,12.4-6.9,5.3-3.3,10.8-6.7,16.9-8.7,16.2-4.7,24.3,4.2,31.9,14.5,11.6,15,27.7,21.3,52.2,20.4,12.2-.3,30.6-.7,35.9,15.9,1.2,3.7,1.5,7.5,1.7,11.2.2,2.3.3,4.6.7,6.9,1.6,12.2,9.5,23.1,21.5,29.9,10.1,5.8,21,13.6,25.3,27.7,1,2.9,1.6,5.8,2.2,8.6.5,2.2.9,4.4,1.6,6.6,1.6,5.9,4.7,11.4,8.8,15.9,2.9,3.2,6.1,5.7,9.5,8.4,2.3,1.8,4.6,3.6,7,5.8,10.5,9,18.8,22.1,23.5,37l-2.9.9c-4.5-14.4-12.5-27-22.6-35.6-2.4-2.1-4.7-3.9-6.9-5.7-3.5-2.7-6.8-5.3-9.9-8.7-4.5-4.8-7.8-10.7-9.5-17.1-.7-2.3-1.1-4.6-1.6-6.8-.6-2.7-1.2-5.6-2.1-8.3-4.1-13.2-14.4-20.5-24-26-12.8-7.3-21.2-19-22.9-32.1-.4-2.4-.6-4.8-.7-7.1-.3-3.7-.5-7.1-1.6-10.5-4.2-13.3-18.6-14.1-33-13.8-25.2.9-42.5-6-54.7-21.6-8.5-11.6-15.6-17.2-28.6-13.4-5.8,1.9-10.8,5-16.2,8.4-4,2.5-8.2,5.1-12.7,7.1-11.1,5.3-24.4,5.7-34.7.9-5.8-2.5-10.3-6.2-14.8-9.7-4.7-3.8-9.2-7.4-14.8-9.3-8.2-3-18-1.5-26.3,3.9-9.9,6.6-19,12-30.9,12.4-7.5.6-15.9-1.3-22.4-3-8.2-2.4-15.5-.7-20,4.7-3.3,3.6-5.2,8.1-7.3,12.9-2.8,6.5-5.7,13.2-12.1,17.3-7.1,5.1-15.9,3.9-23.6,2.7-8.2-1.2-15.4-2.3-19.2,4.3-1.9,3.4-2.1,8.1-2.3,14.2-.1,2.2-.2,4.6-.4,7.1-.5,6.9-1.5,13.1-2.8,18.5-4.4,17-16.3,37.4-32.9,44.5-5.5,2.3-11.5,2.5-17.3,2.6h-1.5c-3.4.1-7.6.5-10,2.5-4.9,4-6.2,13.2-7.6,23-.8,5.5-1.6,11.2-3.1,16.3-3.4,14.8-15.5,36.3-25.2,49h0s0,0,0,0Z"/>
        <path class="cls-1" d="M251.2,495.8l-2.4-1.8c9.5-12.4,21.4-33.5,24.7-47.9,1.5-5,2.3-10.6,3.1-16,1.5-10.4,3-20.2,8.7-24.9,3.1-2.5,8-3,11.8-3.1h1.5c5.5-.2,11.2-.4,16.2-2.4,15.6-6.7,26.9-26.2,31.1-42.5,1.3-5.2,2.2-11.2,2.8-18,.2-2.5.3-4.8.4-7,.3-6.4.5-11.5,2.7-15.5,4.9-8.3,13.7-7,22.3-5.7,7.5,1.1,15.2,2.2,21.5-2.2,5.7-3.7,8.3-9.7,11-16,2.1-4.8,4.2-9.7,7.8-13.7,5.3-6.2,13.7-8.3,23-5.6,6.2,1.6,14.3,3.4,21.4,2.9,11.2-.4,19.6-5.4,29.4-11.9,9.1-5.9,19.9-7.5,29-4.2,6,2,10.7,5.8,15.7,9.8,4.3,3.4,8.7,7,14.1,9.3,9.6,4.4,21.9,4,32.2-.9,4.4-1.9,8.5-4.5,12.4-6.9,5.3-3.3,10.8-6.7,16.9-8.7,16.2-4.7,24.3,4.2,31.9,14.5,11.6,15,27.7,21.3,52.2,20.5,12.2-.3,30.6-.7,35.9,15.9,1.2,3.7,1.5,7.5,1.7,11.2.2,2.3.3,4.6.7,6.9,1.6,12.2,9.5,23.1,21.5,29.9,10.1,5.8,21,13.6,25.3,27.7,1,2.9,1.6,5.8,2.2,8.6.5,2.2.9,4.4,1.6,6.6,1.6,5.9,4.7,11.4,8.8,15.9,2.9,3.2,6.1,5.7,9.5,8.4,2.3,1.8,4.6,3.6,7,5.8,10.5,9,18.8,22.1,23.5,37l-2.9.9c-4.5-14.4-12.5-27-22.6-35.6-2.4-2.1-4.7-3.9-6.9-5.7-3.5-2.7-6.8-5.3-9.9-8.7-4.5-4.8-7.8-10.7-9.5-17.1-.7-2.3-1.1-4.6-1.6-6.8-.6-2.7-1.2-5.6-2.1-8.3-4.1-13.2-14.4-20.5-24-26-12.8-7.3-21.2-19-22.9-32.1-.4-2.4-.6-4.8-.7-7.1-.3-3.7-.5-7.1-1.6-10.5-4.2-13.3-18.6-14.1-33-13.8-25.2.9-42.5-6-54.7-21.6-8.5-11.6-15.6-17.2-28.6-13.4-5.8,1.9-10.8,5-16.2,8.4-4,2.5-8.2,5.1-12.7,7.1-11.1,5.3-24.4,5.7-34.7.9-5.8-2.5-10.3-6.2-14.8-9.7-4.7-3.8-9.2-7.4-14.8-9.3-8.2-3-18-1.5-26.3,3.9-9.9,6.6-19,12-30.9,12.4-7.5.5-15.9-1.3-22.4-3-8.2-2.4-15.5-.7-20,4.7-3.3,3.6-5.2,8.1-7.3,12.9-2.8,6.5-5.7,13.2-12.1,17.3-7.1,5.1-15.9,3.9-23.6,2.7-8.2-1.2-15.4-2.3-19.2,4.3-1.9,3.4-2.1,8.1-2.3,14.2-.1,2.2-.2,4.6-.4,7.1-.5,6.9-1.5,13.1-2.8,18.5-4.4,17-16.3,37.4-32.9,44.5-5.5,2.3-11.5,2.5-17.3,2.6h-1.5c-3.4.1-7.6.5-10,2.5-4.9,4-6.2,13.2-7.6,23-.8,5.5-1.6,11.2-3.1,16.3-3.4,14.8-15.5,36.3-25.2,49h0Z"/>
        <path class="cls-1" d="M251.2,520l-2.4-1.8c9.5-12.4,21.4-33.5,24.7-47.9,1.5-5,2.3-10.6,3.1-16,1.5-10.4,3-20.2,8.7-24.9,3.1-2.5,8-3,11.8-3.1h1.5c5.5-.2,11.2-.4,16.2-2.4,15.6-6.7,26.9-26.2,31.1-42.5,1.3-5.2,2.2-11.2,2.8-18,.2-2.5.3-4.8.4-7,.3-6.4.5-11.5,2.7-15.5,4.9-8.3,13.7-7,22.3-5.7,7.5,1.1,15.2,2.2,21.5-2.2,5.7-3.7,8.3-9.7,11-16,2.1-4.8,4.2-9.7,7.8-13.7,5.3-6.2,13.7-8.3,23-5.6,6.2,1.6,14.3,3.4,21.4,2.9,11.2-.4,19.6-5.4,29.4-11.9,9.1-5.9,19.9-7.5,29-4.2,6,2,10.7,5.8,15.7,9.8,4.3,3.4,8.7,7,14.1,9.3,9.6,4.4,21.9,4,32.2-.9,4.4-1.9,8.5-4.5,12.4-6.9,5.3-3.3,10.8-6.7,16.9-8.7,16.2-4.7,24.3,4.2,31.9,14.5,11.6,15,27.7,21.3,52.2,20.5,12.2-.3,30.6-.7,35.9,15.9,1.2,3.7,1.5,7.5,1.7,11.2.2,2.3.3,4.6.7,6.9,1.6,12.2,9.5,23.1,21.5,29.9,10.1,5.8,21,13.6,25.3,27.7,1,2.9,1.6,5.8,2.2,8.6.5,2.2.9,4.4,1.6,6.6,1.6,5.9,4.7,11.4,8.8,15.9,2.9,3.2,6.1,5.7,9.5,8.4,2.3,1.8,4.6,3.6,7,5.8,10.5,9,18.8,22.1,23.5,37l-2.9.9c-4.5-14.4-12.5-27-22.6-35.6-2.4-2.1-4.7-3.9-6.9-5.7-3.5-2.7-6.8-5.3-9.9-8.7-4.5-4.8-7.8-10.7-9.5-17.1-.7-2.3-1.1-4.6-1.6-6.8-.6-2.7-1.2-5.6-2.1-8.3-4.1-13.2-14.4-20.5-24-26-12.8-7.3-21.2-19-22.9-32.1-.4-2.4-.6-4.8-.7-7.1-.3-3.7-.5-7.1-1.6-10.5-4.2-13.3-18.6-14.1-33-13.8-25.2.9-42.5-6-54.7-21.6-8.5-11.6-15.6-17.2-28.6-13.4-5.8,1.9-10.8,5-16.2,8.4-4,2.5-8.2,5.1-12.7,7.1-11.1,5.3-24.4,5.7-34.7.9-5.8-2.5-10.3-6.2-14.8-9.7-4.7-3.8-9.2-7.4-14.8-9.3-8.2-3-18-1.5-26.3,3.9-9.9,6.6-19,12-30.9,12.4-7.5.5-15.9-1.3-22.4-3-8.2-2.4-15.5-.7-20,4.7-3.3,3.6-5.2,8.1-7.3,12.9-2.8,6.5-5.7,13.2-12.1,17.3-7.1,5.1-15.9,3.9-23.6,2.7-8.2-1.2-15.4-2.3-19.2,4.3-1.9,3.4-2.1,8.1-2.3,14.2-.1,2.2-.2,4.6-.4,7.1-.5,6.9-1.5,13.1-2.8,18.5-4.4,17-16.3,37.4-32.9,44.5-5.5,2.3-11.5,2.5-17.3,2.6h-1.5c-3.4.1-7.6.5-10,2.5-4.9,4-6.2,13.2-7.6,23-.8,5.5-1.6,11.2-3.1,16.3-3.4,14.8-15.5,36.3-25.2,48.9h0Z"/>
        <path class="cls-1" d="M251.2,544.1l-2.4-1.8c9.5-12.4,21.4-33.5,24.7-47.9,1.5-5,2.3-10.6,3.1-16,1.5-10.4,3-20.2,8.7-24.9,3.1-2.5,8-3,11.8-3.1h1.5c5.5-.2,11.2-.4,16.2-2.4,15.6-6.7,26.9-26.2,31.1-42.5,1.3-5.2,2.2-11.2,2.8-18,.2-2.5.3-4.8.4-7,.3-6.4.5-11.5,2.7-15.5,4.9-8.3,13.7-7,22.3-5.7,7.5,1.1,15.2,2.2,21.5-2.2,5.7-3.7,8.3-9.7,11-16,2.1-4.8,4.2-9.7,7.8-13.7,5.3-6.2,13.7-8.3,23-5.6,6.2,1.6,14.3,3.4,21.4,2.9,11.2-.4,19.6-5.4,29.4-11.9,9.1-5.9,19.9-7.5,29-4.2,6,2,10.7,5.8,15.7,9.8,4.3,3.4,8.7,7,14.1,9.3,9.6,4.4,21.9,4,32.2-.9,4.4-1.9,8.5-4.5,12.4-6.9,5.3-3.3,10.8-6.7,16.9-8.7,16.2-4.7,24.3,4.2,31.9,14.5,11.6,15,27.7,21.3,52.2,20.5,12.2-.3,30.6-.7,35.9,15.9,1.2,3.7,1.5,7.5,1.7,11.2.2,2.3.3,4.6.7,6.9,1.6,12.2,9.5,23.1,21.5,29.9,10.1,5.8,21,13.6,25.3,27.7,1,2.9,1.6,5.8,2.2,8.6.5,2.2.9,4.4,1.6,6.6,1.6,5.9,4.7,11.4,8.8,15.9,2.9,3.2,6.1,5.7,9.5,8.4,2.3,1.8,4.6,3.6,7,5.8,10.5,9,18.8,22.1,23.5,37l-2.9.9c-4.5-14.4-12.5-27-22.6-35.6-2.4-2.1-4.7-3.9-6.9-5.7-3.5-2.7-6.8-5.3-9.9-8.7-4.5-4.8-7.8-10.7-9.5-17.1-.7-2.3-1.1-4.6-1.6-6.8-.6-2.7-1.2-5.6-2.1-8.3-4.1-13.2-14.4-20.5-24-26-12.8-7.3-21.2-19-22.9-32.1-.4-2.4-.6-4.8-.7-7.1-.3-3.7-.5-7.1-1.6-10.5-4.2-13.3-18.6-14.1-33-13.8-25.2.9-42.5-6-54.7-21.6-8.5-11.6-15.6-17.2-28.6-13.4-5.8,1.9-10.8,5-16.2,8.3-4,2.5-8.2,5.1-12.7,7.1-11.1,5.3-24.4,5.7-34.7.9-5.8-2.5-10.3-6.2-14.8-9.7-4.7-3.8-9.2-7.4-14.8-9.3-8.2-3-18-1.5-26.3,3.9-9.9,6.6-19,12-30.9,12.4-7.5.5-15.9-1.3-22.4-3-8.2-2.4-15.5-.7-20,4.7-3.3,3.6-5.2,8.1-7.3,12.9-2.8,6.5-5.7,13.2-12.1,17.3-7.1,5.1-15.9,3.9-23.6,2.7-8.2-1.2-15.4-2.3-19.2,4.3-1.9,3.4-2.1,8.1-2.3,14.2-.1,2.2-.2,4.6-.4,7.1-.5,6.9-1.5,13.1-2.8,18.5-4.4,17-16.3,37.4-32.9,44.5-5.5,2.3-11.5,2.5-17.3,2.6h-1.5c-3.4.1-7.6.5-10,2.5-4.9,4-6.2,13.2-7.6,23-.8,5.5-1.6,11.2-3.1,16.3-3.4,14.8-15.5,36.3-25.2,48.9h0Z"/>
        <path class="cls-1" d="M251.2,568.3l-2.4-1.8c9.5-12.4,21.4-33.5,24.7-47.9,1.5-5,2.3-10.6,3.1-16,1.5-10.4,3-20.2,8.7-24.9,3.1-2.5,8-3,11.8-3.1h1.5c5.5-.2,11.2-.4,16.2-2.4,15.6-6.7,26.9-26.2,31.1-42.5,1.3-5.2,2.2-11.2,2.8-18,.2-2.5.3-4.8.4-7,.3-6.4.5-11.5,2.7-15.5,4.9-8.3,13.7-7,22.3-5.7,7.5,1.1,15.2,2.2,21.5-2.2,5.7-3.7,8.3-9.7,11-16,2.1-4.8,4.2-9.7,7.8-13.7,5.3-6.2,13.7-8.3,23-5.6,6.2,1.6,14.3,3.4,21.4,2.9,11.2-.4,19.6-5.4,29.4-11.9,9.1-5.9,19.9-7.5,29-4.2,6,2,10.7,5.8,15.7,9.8,4.3,3.4,8.7,7,14.1,9.3,9.6,4.4,21.9,4,32.2-.9,4.4-1.9,8.5-4.5,12.4-6.9,5.3-3.3,10.8-6.7,16.9-8.7,16.2-4.7,24.3,4.2,31.9,14.5,11.6,15,27.7,21.3,52.2,20.5,12.2-.3,30.6-.7,35.9,15.9,1.2,3.7,1.5,7.5,1.7,11.2.2,2.3.3,4.6.7,6.9,1.6,12.2,9.5,23.1,21.5,29.9,10.1,5.8,21,13.6,25.3,27.7,1,2.9,1.6,5.8,2.2,8.6.5,2.2.9,4.4,1.6,6.6,1.6,5.9,4.7,11.4,8.8,15.9,2.9,3.2,6.1,5.7,9.5,8.4,2.3,1.8,4.6,3.6,7,5.8,10.5,9,18.8,22.1,23.5,37l-2.9.9c-4.5-14.3-12.5-27-22.6-35.6-2.4-2.1-4.7-3.9-6.9-5.7-3.5-2.7-6.8-5.3-9.9-8.7-4.5-4.8-7.8-10.7-9.5-17.1-.7-2.3-1.1-4.6-1.6-6.8-.6-2.7-1.2-5.6-2.1-8.3-4.1-13.2-14.4-20.5-24-26-12.8-7.3-21.2-19-22.9-32.1-.4-2.4-.6-4.8-.7-7.1-.3-3.7-.5-7.1-1.6-10.5-4.2-13.3-18.6-14.1-33-13.8-25.2.9-42.5-6-54.7-21.6-8.5-11.6-15.6-17.2-28.6-13.4-5.8,1.9-10.8,5-16.2,8.4-4,2.5-8.2,5.1-12.7,7.1-11.1,5.3-24.4,5.7-34.7.9-5.8-2.5-10.3-6.2-14.8-9.7-4.7-3.8-9.2-7.4-14.8-9.3-8.2-3-18-1.5-26.3,3.9-9.9,6.6-19,12-30.9,12.4-7.5.5-15.9-1.3-22.4-3-8.2-2.4-15.5-.7-20,4.7-3.3,3.6-5.2,8.1-7.3,12.9-2.8,6.5-5.7,13.2-12.1,17.3-7.1,5.1-15.9,3.9-23.6,2.7-8.2-1.2-15.4-2.3-19.2,4.3-1.9,3.4-2.1,8.1-2.3,14.2-.1,2.2-.2,4.6-.4,7.1-.5,6.9-1.5,13.1-2.8,18.5-4.4,17-16.3,37.4-32.9,44.5-5.5,2.3-11.5,2.5-17.3,2.6h-1.5c-3.4.1-7.6.5-10,2.5-4.9,4-6.2,13.2-7.6,23-.8,5.5-1.6,11.2-3.1,16.3-3.4,14.8-15.5,36.3-25.2,49h0Z"/>
        <path class="cls-1" d="M256.2,586.5l-2.4-1.8c9.2-12,16.4-27.3,19.7-41.9,1.5-5,2.3-10.6,3.1-16,1.5-10.4,3-20.2,8.7-24.9,3.1-2.5,8-3,11.8-3.1h1.5c5.5-.2,11.2-.4,16.2-2.4,15.6-6.7,26.9-26.2,31.1-42.5,1.3-5.2,2.2-11.2,2.8-18,.2-2.5.3-4.8.4-7,.3-6.4.5-11.5,2.7-15.5,4.9-8.3,13.7-7,22.3-5.7,7.5,1.1,15.2,2.2,21.5-2.2,5.7-3.7,8.3-9.7,11-16,2.1-4.8,4.2-9.7,7.8-13.7,5.3-6.2,13.7-8.3,23-5.6,6.2,1.6,14.3,3.4,21.4,2.9,11.2-.4,19.6-5.4,29.4-11.9,9.1-5.9,19.9-7.5,29-4.2,6,2,10.7,5.8,15.7,9.8,4.3,3.4,8.7,7,14.1,9.3,9.6,4.4,21.9,4,32.2-.9,4.4-1.9,8.5-4.5,12.4-6.9,5.3-3.3,10.8-6.7,16.9-8.7,16.2-4.7,24.3,4.2,31.9,14.5,11.6,15,27.7,21.3,52.2,20.5,12.2-.3,30.6-.7,35.9,15.9,1.2,3.7,1.5,7.5,1.7,11.2.2,2.3.3,4.6.7,6.9,1.6,12.2,9.5,23.1,21.5,29.9,10.1,5.8,21,13.6,25.3,27.7,1,2.9,1.6,5.8,2.2,8.6.5,2.2.9,4.4,1.6,6.6,1.6,5.9,4.7,11.4,8.8,15.9,2.9,3.2,6.1,5.7,9.5,8.4,2.3,1.8,4.6,3.6,7,5.8,10.5,9,18.8,22.1,23.5,37l-2.9.9c-4.5-14.3-12.5-27-22.6-35.6-2.4-2.1-4.7-3.9-6.9-5.7-3.5-2.7-6.8-5.3-9.9-8.7-4.5-4.8-7.8-10.7-9.5-17.1-.7-2.3-1.1-4.6-1.6-6.8-.6-2.7-1.2-5.6-2.1-8.3-4.1-13.2-14.4-20.5-24-26-12.8-7.3-21.2-19-22.9-32.1-.4-2.4-.6-4.8-.7-7.1-.3-3.7-.5-7.1-1.6-10.5-4.2-13.3-18.6-14.1-33-13.8-25.2.9-42.5-6-54.7-21.6-8.5-11.6-15.6-17.2-28.6-13.4-5.8,1.9-10.8,5-16.2,8.4-4,2.5-8.2,5.1-12.7,7.1-11.1,5.3-24.4,5.7-34.7.9-5.8-2.5-10.3-6.2-14.8-9.7-4.7-3.8-9.2-7.4-14.8-9.3-8.2-3-18-1.5-26.3,3.9-9.9,6.6-19,12-30.9,12.4-7.5.5-15.9-1.3-22.4-3-8.2-2.4-15.5-.7-20,4.7-3.3,3.6-5.2,8.1-7.3,12.9-2.8,6.5-5.7,13.2-12.1,17.3-7.1,5.1-15.9,3.9-23.6,2.7-8.2-1.2-15.4-2.3-19.2,4.3-1.9,3.4-2.1,8.1-2.3,14.2-.1,2.2-.2,4.6-.4,7.1-.5,6.9-1.5,13.1-2.8,18.5-4.4,17-16.3,37.4-32.9,44.5-5.5,2.3-11.5,2.5-17.3,2.6h-1.5c-3.4.1-7.6.5-10,2.5-4.9,4-6.2,13.2-7.6,23-.8,5.5-1.6,11.2-3.1,16.3-3.4,14.9-10.8,30.6-20.2,43h0s0,0,0,0Z"/>
        <path class="cls-1" d="M256.2,610.7l-2.4-1.8c9.2-12,16.4-27.3,19.7-41.9,1.5-5,2.3-10.6,3.1-16,1.5-10.4,3-20.2,8.7-24.9,3.1-2.5,8-3,11.8-3.1h1.5c5.5-.2,11.2-.3,16.2-2.4,15.6-6.7,26.9-26.2,31.1-42.5,1.3-5.2,2.2-11.2,2.8-18,.2-2.5.3-4.8.4-7,.3-6.4.5-11.5,2.7-15.5,4.9-8.3,13.7-7,22.3-5.7,7.5,1.1,15.2,2.2,21.5-2.2,5.7-3.7,8.3-9.7,11-16,2.1-4.8,4.2-9.7,7.8-13.7,5.3-6.2,13.7-8.3,23-5.6,6.2,1.6,14.3,3.4,21.4,2.9,11.2-.4,19.6-5.4,29.4-11.9,9.1-5.9,19.9-7.5,29-4.2,6,2,10.7,5.8,15.7,9.8,4.3,3.4,8.7,7,14.1,9.3,9.6,4.4,21.9,4,32.2-.9,4.4-1.9,8.5-4.5,12.4-6.9,5.3-3.3,10.8-6.7,16.9-8.7,16.2-4.7,24.3,4.2,31.9,14.5,11.6,15,27.7,21.3,52.2,20.5,12.2-.3,30.6-.7,35.9,15.9,1.2,3.7,1.5,7.5,1.7,11.2.2,2.3.3,4.6.7,6.9,1.6,12.2,9.5,23.1,21.5,29.9,10.1,5.8,21,13.6,25.3,27.7,1,2.9,1.6,5.8,2.2,8.6.5,2.2.9,4.4,1.6,6.6,1.6,5.9,4.7,11.4,8.8,15.9,2.9,3.2,6.1,5.7,9.5,8.4,2.3,1.8,4.6,3.6,7,5.8,10.5,9,18.8,22.1,23.5,37l-2.9.9c-4.5-14.3-12.5-27-22.6-35.6-2.4-2.1-4.7-3.9-6.9-5.7-3.5-2.7-6.8-5.3-9.9-8.7-4.5-4.8-7.8-10.7-9.5-17.1-.7-2.3-1.1-4.6-1.6-6.8-.6-2.7-1.2-5.6-2.1-8.3-4.1-13.2-14.4-20.5-24-26-12.8-7.3-21.2-19-22.9-32.1-.4-2.4-.6-4.8-.7-7.1-.3-3.7-.5-7.1-1.6-10.5-4.2-13.3-18.6-14.1-33-13.8-25.2.9-42.5-6-54.7-21.6-8.5-11.6-15.6-17.2-28.6-13.4-5.8,1.9-10.8,5-16.2,8.4-4,2.5-8.2,5.1-12.7,7.1-11.1,5.3-24.4,5.7-34.7.9-5.8-2.5-10.3-6.2-14.8-9.7-4.7-3.8-9.2-7.4-14.8-9.3-8.2-3-18-1.5-26.3,3.9-9.9,6.6-19,12-30.9,12.4-7.5.5-15.9-1.3-22.4-3-8.2-2.4-15.5-.7-20,4.7-3.3,3.6-5.2,8.1-7.3,12.9-2.8,6.5-5.7,13.2-12.1,17.3-7.1,5.1-15.9,3.9-23.6,2.7-8.2-1.2-15.4-2.3-19.2,4.3-1.9,3.4-2.1,8.1-2.3,14.2-.1,2.2-.2,4.6-.4,7.1-.5,6.9-1.5,13.1-2.8,18.5-4.4,17-16.3,37.4-32.9,44.5-5.5,2.3-11.5,2.5-17.3,2.6h-1.5c-3.4.1-7.6.5-10,2.5-4.9,4-6.2,13.2-7.6,23-.8,5.5-1.6,11.2-3.1,16.3-3.4,14.9-10.8,30.6-20.2,43h0s0,0,0,0Z"/>
        <path class="cls-1" d="M256.2,634.9l-2.4-1.8c9.2-12,16.4-27.3,19.7-41.9,1.5-5,2.3-10.6,3.1-16,1.5-10.4,3-20.2,8.7-24.9,3.1-2.5,8-3,11.8-3.1h1.5c5.5-.2,11.2-.3,16.2-2.4,15.6-6.7,26.9-26.2,31.1-42.5,1.3-5.2,2.2-11.2,2.8-18,.2-2.5.3-4.8.4-7,.3-6.4.5-11.5,2.7-15.5,4.9-8.3,13.7-7,22.3-5.7,7.5,1.1,15.2,2.2,21.5-2.2,5.7-3.7,8.3-9.7,11-16,2.1-4.8,4.2-9.7,7.8-13.7,5.3-6.2,13.7-8.3,23-5.6,6.2,1.6,14.3,3.4,21.4,2.9,11.2-.4,19.6-5.4,29.4-11.9,9.1-5.9,19.9-7.5,29-4.2,6,2,10.7,5.8,15.7,9.8,4.3,3.4,8.7,7,14.1,9.3,9.6,4.4,21.9,4,32.2-.9,4.4-1.9,8.5-4.5,12.4-6.9,5.3-3.3,10.8-6.7,16.9-8.7,16.2-4.7,24.3,4.2,31.9,14.5,11.6,15,27.7,21.3,52.2,20.5,12.2-.3,30.6-.7,35.9,15.9,1.2,3.7,1.5,7.5,1.7,11.2.2,2.3.3,4.6.7,6.9,1.6,12.2,9.5,23.1,21.5,29.9,10.1,5.8,21,13.6,25.3,27.7,1,2.9,1.6,5.8,2.2,8.6.5,2.2.9,4.4,1.6,6.6,1.6,5.9,4.7,11.4,8.8,15.9,2.9,3.2,6.1,5.7,9.5,8.4,2.3,1.8,4.6,3.6,7,5.8,10.5,9,18.8,22.1,23.5,37l-2.9.9c-4.5-14.3-12.5-27-22.6-35.6-2.4-2.1-4.7-3.9-6.9-5.7-3.5-2.7-6.8-5.3-9.9-8.7-4.5-4.8-7.8-10.7-9.5-17.1-.7-2.3-1.1-4.6-1.6-6.8-.6-2.7-1.2-5.6-2.1-8.3-4.1-13.2-14.4-20.5-24-26-12.8-7.3-21.2-19-22.9-32.1-.4-2.4-.6-4.8-.7-7.1-.3-3.7-.5-7.1-1.6-10.5-4.2-13.3-18.6-14.1-33-13.8-25.2.9-42.5-6-54.7-21.6-8.5-11.6-15.6-17.2-28.6-13.4-5.8,1.9-10.8,5-16.2,8.4-4,2.5-8.2,5.1-12.7,7.1-11.1,5.3-24.4,5.7-34.7.9-5.8-2.5-10.3-6.2-14.8-9.7-4.7-3.8-9.2-7.4-14.8-9.3-8.2-3-18-1.5-26.3,3.9-9.9,6.6-19,12-30.9,12.4-7.5.5-15.9-1.3-22.4-3-8.2-2.4-15.5-.7-20,4.7-3.3,3.6-5.2,8.1-7.3,12.9-2.8,6.5-5.7,13.2-12.1,17.3-7.1,5.1-15.9,3.9-23.6,2.7-8.2-1.2-15.4-2.3-19.2,4.3-1.9,3.4-2.1,8.1-2.3,14.2-.1,2.2-.2,4.6-.4,7.1-.5,6.9-1.5,13.1-2.8,18.5-4.4,17-16.3,37.4-32.9,44.5-5.5,2.3-11.5,2.5-17.3,2.6h-1.5c-3.4.1-7.6.5-10,2.5-4.9,4-6.2,13.2-7.6,23-.8,5.5-1.6,11.2-3.1,16.3-3.4,14.9-10.8,30.6-20.2,43h0Z"/>
        <path class="cls-1" d="M256.2,659l-2.4-1.8c9.2-12,16.4-27.3,19.7-41.9,1.5-5,2.3-10.6,3.1-16,1.5-10.4,3-20.2,8.7-24.9,3.1-2.5,8-3,11.8-3.1h1.5c5.5-.2,11.2-.3,16.2-2.4,15.6-6.7,26.9-26.2,31.1-42.5,1.3-5.2,2.2-11.2,2.8-18,.2-2.5.3-4.8.4-7,.3-6.4.5-11.5,2.7-15.5,4.9-8.3,13.7-7,22.3-5.7,7.5,1.1,15.2,2.2,21.5-2.2,5.7-3.7,8.3-9.7,11-16,2.1-4.8,4.2-9.7,7.8-13.7,5.3-6.2,13.7-8.3,23-5.6,6.2,1.6,14.3,3.4,21.4,2.9,11.2-.4,19.6-5.4,29.4-11.9,9.1-5.9,19.9-7.5,29-4.2,6,2,10.7,5.8,15.7,9.8,4.3,3.4,8.7,7,14.1,9.3,9.6,4.4,21.9,4,32.2-.9,4.4-1.9,8.5-4.5,12.4-6.9,5.3-3.3,10.8-6.7,16.9-8.7,16.2-4.7,24.3,4.2,31.9,14.5,11.6,15,27.7,21.3,52.2,20.5,12.2-.3,30.6-.7,35.9,15.9,1.2,3.7,1.5,7.5,1.7,11.2.2,2.3.3,4.6.7,6.9,1.6,12.2,9.5,23.1,21.5,29.9,10.1,5.8,21,13.6,25.3,27.7,1,2.9,1.6,5.8,2.2,8.6.5,2.2.9,4.4,1.6,6.6,1.6,5.9,4.7,11.4,8.8,15.9,2.9,3.2,6.1,5.7,9.5,8.4,2.3,1.8,4.6,3.6,7,5.8,10.5,9,18.8,22.1,23.5,37l-2.9.9c-4.5-14.3-12.5-27-22.6-35.6-2.4-2.1-4.7-3.9-6.9-5.7-3.5-2.7-6.8-5.3-9.9-8.7-4.5-4.8-7.8-10.7-9.5-17.1-.7-2.3-1.1-4.6-1.6-6.8-.6-2.7-1.2-5.6-2.1-8.3-4.1-13.2-14.4-20.5-24-26-12.8-7.3-21.2-19-22.9-32.1-.4-2.4-.6-4.8-.7-7.1-.3-3.7-.5-7.1-1.6-10.5-4.2-13.3-18.6-14.1-33-13.8-25.2.9-42.5-6-54.7-21.6-8.5-11.6-15.6-17.2-28.6-13.4-5.8,1.9-10.8,5-16.2,8.3-4,2.5-8.2,5.1-12.7,7.1-11.1,5.3-24.4,5.7-34.7.9-5.8-2.5-10.3-6.2-14.8-9.7-4.7-3.8-9.2-7.4-14.8-9.3-8.2-3-18-1.5-26.3,3.9-9.9,6.6-19,12-30.9,12.4-7.5.5-15.9-1.3-22.4-3-8.2-2.4-15.5-.7-20,4.7-3.3,3.6-5.2,8.1-7.3,12.9-2.8,6.5-5.7,13.2-12.1,17.3-7.1,5.1-15.9,3.9-23.6,2.7-8.2-1.2-15.4-2.3-19.2,4.3-1.9,3.4-2.1,8.1-2.3,14.2-.1,2.2-.2,4.6-.4,7.1-.5,6.9-1.5,13.2-2.8,18.5-4.4,17-16.3,37.4-32.9,44.5-5.5,2.3-11.5,2.5-17.3,2.6h-1.5c-3.4.1-7.6.5-10,2.5-4.9,4-6.2,13.2-7.6,23-.8,5.5-1.6,11.2-3.1,16.3-3.4,14.9-10.8,30.6-20.2,43h0Z"/>
        <path class="cls-1" d="M266.2,680.2l-2.4-1.8c5.8-7.6,6.6-15.4,7.6-24.5.5-4.6,1-9.3,2.1-14.4,1.5-5,2.3-10.6,3.1-16,1.5-10.4,3-20.2,8.7-24.9,3.1-2.5,8-3,11.8-3.1h1.5c5.5-.2,11.2-.3,16.2-2.4,15.6-6.7,26.9-26.2,31.1-42.5,1.3-5.2,2.2-11.2,2.8-18,.2-2.5.3-4.8.4-7,.3-6.4.5-11.5,2.7-15.5,4.9-8.3,13.7-7,22.3-5.7,7.5,1.1,15.2,2.2,21.5-2.2,5.7-3.7,8.3-9.7,11-16,2.1-4.8,4.2-9.7,7.8-13.7,5.3-6.2,13.7-8.3,23-5.6,6.2,1.6,14.3,3.4,21.4,2.9,11.2-.4,19.6-5.4,29.4-11.9,9.1-5.9,19.9-7.5,29-4.2,6,2,10.7,5.8,15.7,9.8,4.3,3.4,8.7,7,14.1,9.3,9.6,4.4,21.9,4,32.2-.9,4.4-1.9,8.5-4.5,12.4-6.9,5.3-3.3,10.8-6.7,16.9-8.7,16.2-4.7,24.3,4.2,31.9,14.5,11.6,15,27.7,21.3,52.2,20.5,12.2-.3,30.6-.7,35.9,15.9,1.2,3.7,1.5,7.5,1.7,11.2.2,2.3.3,4.6.7,6.9,1.6,12.2,9.5,23.1,21.5,29.9,10.1,5.8,21,13.6,25.3,27.7,1,2.9,1.6,5.8,2.2,8.6.5,2.2.9,4.4,1.6,6.6,1.6,5.9,4.7,11.4,8.8,15.9,2.9,3.2,6.1,5.7,9.5,8.4,2.3,1.8,4.6,3.6,7,5.8,8.9,7.6,11.4,17.1,14,27.2.8,2.8,1.5,5.8,2.5,8.8l-2.9.9c-1-3.1-1.7-6-2.5-8.9-2.6-10-4.9-18.6-13.1-25.7-2.4-2.1-4.7-3.9-6.9-5.7-3.5-2.7-6.8-5.3-9.9-8.7-4.5-4.8-7.8-10.7-9.5-17.1-.7-2.3-1.1-4.6-1.6-6.8-.6-2.7-1.2-5.6-2.1-8.3-4.1-13.2-14.4-20.5-24-26-12.8-7.3-21.2-19-22.9-32.1-.4-2.4-.6-4.8-.7-7.1-.3-3.7-.5-7.1-1.6-10.5-4.2-13.3-18.6-14.1-33-13.8-25.2.9-42.5-6-54.7-21.6-8.5-11.6-15.6-17.2-28.6-13.4-5.8,1.9-10.8,5-16.2,8.4-4,2.5-8.2,5.1-12.7,7.1-11.1,5.3-24.4,5.7-34.7.9-5.8-2.5-10.3-6.2-14.8-9.7-4.7-3.8-9.2-7.4-14.8-9.3-8.2-3-18-1.5-26.3,3.9-9.9,6.6-19,12-30.9,12.4-7.5.5-15.9-1.3-22.4-3-8.2-2.4-15.5-.7-20,4.7-3.3,3.6-5.2,8.1-7.3,12.9-2.8,6.5-5.7,13.2-12.1,17.3-7.1,5.1-15.9,3.9-23.6,2.7-8.2-1.2-15.4-2.3-19.2,4.3-1.9,3.4-2.1,8.2-2.3,14.2-.1,2.2-.2,4.6-.4,7.1-.5,6.9-1.5,13.2-2.8,18.5-4.4,17-16.3,37.4-32.9,44.5-5.5,2.3-11.5,2.5-17.3,2.6h-1.5c-3.4.1-7.6.5-10,2.5-4.9,4-6.2,13.2-7.6,23-.8,5.5-1.6,11.2-3.1,16.3-1.1,4.8-1.6,9.5-2.1,14-1,9.1-1.8,17.7-8.2,26h0s0,0,0,0Z"/>
        <path class="cls-1" d="M465.3,650.5c31.5,1.7,75.8,48.6,47.3,62.1-129.1,61.3-86.3,146.9-93.6,170.2,0,0-68.7-41.2-108.8-91.7-20.1-25.3-35.7-53.6-46.5-83.9-11.1-31.4-16.8-64.3-16.8-98s1-28.3,3-42.3c4.5,25.8,12.7,37.8,25.7,37.8h0c18.8,0,45-25.4,78.2-57.5,51.6-50,115.9-112.1,186.6-112.1s134.8,62.2,186.3,112.3c32.9,32,58.9,57.3,77.6,57.3s21.1-12,25.6-37.8c2,14,3,28.2,3,42.3,0,45.9-10.3,89.8-30.7,130.6-19.3,38.7-47.5,73.2-81.6,100-8.7-26.9-15.5-50.1-20.1-75.9-3.7-20.2-6.2-40.4-8.8-64.5-5.2-28.6-10.1-55.5-23.7-81-14-26.2-25.9-50.5-53.3-64.2-21-10.6-45,1.7-31.7-14.3-3.8-.5-60.9,2.8-81.6,16.5-14.3,9.5-12.6,17.8-20.9,19.3-27.6,4.9-42.6,30.3-63.9,34.8l-37.6,30.6,86.2,9.3Z"/>
        <rect class="cls-1" x="248.5" y="422.8" width="3" height="172"/>
        <rect class="cls-1" x="827.5" y="399.3" width="3" height="186"/>
      </g>
      <path class="cls-1" d="M559.9,605.7h-32.5c0-2.8.3-5.3.7-7.6.2-.9.4-1.8.7-2.6,2-6.2,6-9.8,10.8-11.1,1-.3,2.1-.4,3.2-.5h0c.3,0,.5,0,.8,0,5.9,0,11,2.9,13.8,9.1h0c.4.9.8,2,1.2,3.1.8,2.7,1.3,5.9,1.3,9.6h0Z"/>
    </g>
  </g>
</svg>